# xmcd CD database file
#
# Track frame offsets:
#	150
#	22153
#	50864
#	104905
#	135831
#	160619
#
# Disc length: 2522 seconds
#
# Revision: 0
# Processed by: cddbd v1.5.2PL0 Copyright (c) Steve Scherf et al.
# Submitted via: CDex 1.51
#
DISCID=4f09d806
DTITLE=Sam Jones - Seven Minds
DYEAR=2002
DGENRE=Jazz
TTITLE0=Blues For Amos
TTITLE1=Holy Land
TTITLE2=Seven Minds
TTITLE3=I Didn't Know What Time It Was
TTITLE4=Miss Morgan
TTITLE5=Le Maestro
EXTD=YEAR: 2002
EXTT0=
EXTT1=
EXTT2=
EXTT3=
EXTT4=
EXTT5=
PLAYORDER=
